<svg width="120" height="58" viewBox="0 0 120 58" fill="none" xmlns="http://www.w3.org/2000/svg">
<path opacity="0.5" d="M11.178 22H9.54L2.952 11.974V22H1.314V9.31H2.952L9.54 19.354V9.31H11.178V22ZM17.862 11.992C18.822 11.992 19.632 12.232 20.292 12.712C20.964 13.192 21.432 13.834 21.696 14.638V12.118H23.334V22H21.696V19.48C21.432 20.284 20.964 20.926 20.292 21.406C19.632 21.886 18.822 22.126 17.862 22.126C16.986 22.126 16.206 21.922 15.522 21.514C14.838 21.106 14.298 20.524 13.902 19.768C13.518 19 13.326 18.1 13.326 17.068C13.326 16.036 13.518 15.136 13.902 14.368C14.298 13.6 14.838 13.012 15.522 12.604C16.206 12.196 16.986 11.992 17.862 11.992ZM18.33 13.45C17.322 13.45 16.512 13.774 15.9 14.422C15.3 15.058 15 15.94 15 17.068C15 18.196 15.3 19.084 15.9 19.732C16.512 20.368 17.322 20.686 18.33 20.686C18.978 20.686 19.554 20.536 20.058 20.236C20.574 19.936 20.976 19.516 21.264 18.976C21.552 18.424 21.696 17.788 21.696 17.068C21.696 16.348 21.552 15.712 21.264 15.16C20.976 14.608 20.574 14.188 20.058 13.9C19.554 13.6 18.978 13.45 18.33 13.45ZM38.091 11.956C39.243 11.956 40.167 12.328 40.863 13.072C41.571 13.804 41.925 14.866 41.925 16.258V22H40.287V16.402C40.287 15.43 40.047 14.686 39.567 14.17C39.099 13.654 38.451 13.396 37.623 13.396C36.759 13.396 36.063 13.684 35.535 14.26C35.019 14.824 34.761 15.658 34.761 16.762V22H33.123V16.402C33.123 15.43 32.883 14.686 32.403 14.17C31.923 13.654 31.275 13.396 30.459 13.396C29.583 13.396 28.881 13.684 28.353 14.26C27.837 14.824 27.579 15.658 27.579 16.762V22H25.941V12.118H27.579V14.368C27.819 13.588 28.245 12.994 28.857 12.586C29.481 12.166 30.195 11.956 30.999 11.956C31.839 11.956 32.565 12.172 33.177 12.604C33.801 13.024 34.245 13.648 34.509 14.476C34.785 13.672 35.247 13.054 35.895 12.622C36.543 12.178 37.275 11.956 38.091 11.956ZM53.5583 16.51C53.5583 16.858 53.5343 17.158 53.4863 17.41H45.5843C45.6203 18.538 45.9383 19.384 46.5383 19.948C47.1503 20.512 47.8943 20.794 48.7703 20.794C49.5623 20.794 50.2223 20.596 50.7503 20.2C51.2903 19.792 51.6203 19.252 51.7403 18.58H53.4863C53.3663 19.264 53.0963 19.876 52.6763 20.416C52.2683 20.956 51.7343 21.376 51.0743 21.676C50.4143 21.976 49.6703 22.126 48.8423 22.126C47.8943 22.126 47.0543 21.922 46.3223 21.514C45.5903 21.106 45.0143 20.524 44.5943 19.768C44.1863 19 43.9823 18.1 43.9823 17.068C43.9823 16.036 44.1863 15.136 44.5943 14.368C45.0143 13.6 45.5903 13.012 46.3223 12.604C47.0543 12.196 47.8943 11.992 48.8423 11.992C49.8023 11.992 50.6363 12.196 51.3443 12.604C52.0643 13.012 52.6103 13.558 52.9823 14.242C53.3663 14.926 53.5583 15.682 53.5583 16.51ZM51.9023 16.618C51.9383 15.886 51.8183 15.274 51.5423 14.782C51.2663 14.29 50.8883 13.924 50.4083 13.684C49.9283 13.444 49.4063 13.324 48.8423 13.324C47.9423 13.324 47.1863 13.606 46.5743 14.17C45.9623 14.722 45.6323 15.538 45.5843 16.618H51.9023Z" fill="#2D2D2D"/>
<path d="M9.10326 39.817C9.47008 39.0737 10.5299 39.0737 10.8967 39.817L12.7063 43.4835C12.8519 43.7786 13.1335 43.9832 13.4592 44.0305L17.5054 44.6185C18.3256 44.7376 18.6531 45.7456 18.0596 46.3242L15.1318 49.1781C14.8961 49.4079 14.7885 49.7389 14.8442 50.0632L15.5353 54.0931C15.6754 54.91 14.818 55.533 14.0844 55.1473L10.4653 53.2446C10.174 53.0915 9.82598 53.0915 9.53466 53.2446L5.91562 55.1473C5.18199 55.533 4.32456 54.91 4.46467 54.0931L5.15585 50.0632C5.21148 49.7389 5.10393 49.4079 4.86825 49.1781L1.94038 46.3242C1.34687 45.7456 1.67438 44.7376 2.4946 44.6185L6.54081 44.0305C6.86652 43.9832 7.14808 43.7786 7.29374 43.4835L9.10326 39.817Z" fill="#2D2D2D"/>
<path d="M34.1033 39.817C34.4701 39.0737 35.5299 39.0737 35.8967 39.817L37.7063 43.4835C37.8519 43.7786 38.1335 43.9832 38.4592 44.0305L42.5054 44.6185C43.3256 44.7376 43.6531 45.7456 43.0596 46.3242L40.1318 49.1781C39.8961 49.4079 39.7885 49.7389 39.8442 50.0632L40.5353 54.0931C40.6754 54.91 39.818 55.533 39.0844 55.1473L35.4653 53.2446C35.174 53.0915 34.826 53.0915 34.5347 53.2446L30.9156 55.1473C30.182 55.533 29.3246 54.91 29.4647 54.0931L30.1558 50.0632C30.2115 49.7389 30.1039 49.4079 29.8682 49.1781L26.9404 46.3242C26.3469 45.7456 26.6744 44.7376 27.4946 44.6185L31.5408 44.0305C31.8665 43.9832 32.1481 43.7786 32.2937 43.4835L34.1033 39.817Z" fill="#2D2D2D"/>
<path d="M59.1033 39.817C59.4701 39.0737 60.5299 39.0737 60.8967 39.817L62.7063 43.4835C62.8519 43.7786 63.1335 43.9832 63.4592 44.0305L67.5054 44.6185C68.3256 44.7376 68.6531 45.7456 68.0596 46.3242L65.1318 49.1781C64.8961 49.4079 64.7885 49.7389 64.8442 50.0632L65.5353 54.0931C65.6754 54.91 64.818 55.533 64.0844 55.1473L60.4653 53.2446C60.174 53.0915 59.826 53.0915 59.5347 53.2446L55.9156 55.1473C55.182 55.533 54.3246 54.91 54.4647 54.0931L55.1558 50.0632C55.2115 49.7389 55.1039 49.4079 54.8682 49.1781L51.9404 46.3242C51.3469 45.7456 51.6744 44.7376 52.4946 44.6185L56.5408 44.0305C56.8665 43.9832 57.1481 43.7786 57.2937 43.4835L59.1033 39.817Z" fill="#2D2D2D"/>
<path d="M84.1033 39.817C84.4701 39.0737 85.5299 39.0737 85.8967 39.817L87.7063 43.4835C87.8519 43.7786 88.1335 43.9832 88.4592 44.0305L92.5054 44.6185C93.3256 44.7376 93.6531 45.7456 93.0596 46.3242L90.1318 49.1781C89.8961 49.4079 89.7885 49.7389 89.8442 50.0632L90.5353 54.0931C90.6754 54.91 89.818 55.533 89.0844 55.1473L85.4653 53.2446C85.174 53.0915 84.826 53.0915 84.5347 53.2446L80.9156 55.1473C80.182 55.533 79.3246 54.91 79.4647 54.0931L80.1558 50.0632C80.2115 49.7389 80.1039 49.4079 79.8682 49.1781L76.9404 46.3242C76.3469 45.7456 76.6744 44.7376 77.4946 44.6185L81.5408 44.0305C81.8665 43.9832 82.1481 43.7786 82.2937 43.4835L84.1033 39.817Z" fill="#2D2D2D"/>
<path d="M109.103 39.817C109.47 39.0737 110.53 39.0737 110.897 39.817L112.706 43.4835C112.852 43.7786 113.133 43.9832 113.459 44.0305L117.505 44.6185C118.326 44.7376 118.653 45.7456 118.06 46.3242L115.132 49.1781C114.896 49.4079 114.789 49.7389 114.844 50.0632L115.535 54.0931C115.675 54.91 114.818 55.533 114.084 55.1473L110.465 53.2446C110.174 53.0915 109.826 53.0915 109.535 53.2446L105.916 55.1473C105.182 55.533 104.325 54.91 104.465 54.0931L105.156 50.0632C105.211 49.7389 105.104 49.4079 104.868 49.1781L101.94 46.3242C101.347 45.7456 101.674 44.7376 102.495 44.6185L106.541 44.0305C106.867 43.9832 107.148 43.7786 107.294 43.4835L109.103 39.817Z" fill="#2D2D2D"/>
</svg>
