<svg width="154" height="35" viewBox="0 0 154 35" fill="none" xmlns="http://www.w3.org/2000/svg">
<path d="M4.66 22.36H9.14V25H1.24V10.96H4.66V22.36ZM17.4113 25.14C16.0913 25.14 14.8779 24.8333 13.7713 24.22C12.6779 23.6067 11.8046 22.7533 11.1513 21.66C10.5112 20.5533 10.1912 19.3133 10.1912 17.94C10.1912 16.5667 10.5112 15.3333 11.1513 14.24C11.8046 13.1467 12.6779 12.2933 13.7713 11.68C14.8779 11.0667 16.0913 10.76 17.4113 10.76C18.7313 10.76 19.9379 11.0667 21.0313 11.68C22.1379 12.2933 23.0046 13.1467 23.6313 14.24C24.2713 15.3333 24.5913 16.5667 24.5913 17.94C24.5913 19.3133 24.2713 20.5533 23.6313 21.66C22.9913 22.7533 22.1246 23.6067 21.0313 24.22C19.9379 24.8333 18.7313 25.14 17.4113 25.14ZM17.4113 22.02C18.5313 22.02 19.4246 21.6467 20.0912 20.9C20.7713 20.1533 21.1113 19.1667 21.1113 17.94C21.1113 16.7 20.7713 15.7133 20.0912 14.98C19.4246 14.2333 18.5313 13.86 17.4113 13.86C16.2779 13.86 15.3713 14.2267 14.6913 14.96C14.0246 15.6933 13.6913 16.6867 13.6913 17.94C13.6913 19.18 14.0246 20.1733 14.6913 20.92C15.3713 21.6533 16.2779 22.02 17.4113 22.02ZM35.8139 15.4C35.5606 14.9333 35.1939 14.58 34.7139 14.34C34.2472 14.0867 33.6939 13.96 33.0539 13.96C31.9472 13.96 31.0606 14.3267 30.3939 15.06C29.7272 15.78 29.3939 16.7467 29.3939 17.96C29.3939 19.2533 29.7406 20.2667 30.4339 21C31.1406 21.72 32.1072 22.08 33.3339 22.08C34.1739 22.08 34.8806 21.8667 35.4539 21.44C36.0406 21.0133 36.4672 20.4 36.7339 19.6H32.3939V17.08H39.8339V20.26C39.5806 21.1133 39.1472 21.9067 38.5339 22.64C37.9339 23.3733 37.1672 23.9667 36.2339 24.42C35.3006 24.8733 34.2472 25.1 33.0739 25.1C31.6872 25.1 30.4472 24.8 29.3539 24.2C28.2739 23.5867 27.4272 22.74 26.8139 21.66C26.2139 20.58 25.9139 19.3467 25.9139 17.96C25.9139 16.5733 26.2139 15.34 26.8139 14.26C27.4272 13.1667 28.2739 12.32 29.3539 11.72C30.4339 11.1067 31.6672 10.8 33.0539 10.8C34.7339 10.8 36.1472 11.2067 37.2939 12.02C38.4539 12.8333 39.2206 13.96 39.5939 15.4H35.8139ZM48.3683 25.14C47.0483 25.14 45.8349 24.8333 44.7283 24.22C43.6349 23.6067 42.7616 22.7533 42.1083 21.66C41.4683 20.5533 41.1483 19.3133 41.1483 17.94C41.1483 16.5667 41.4683 15.3333 42.1083 14.24C42.7616 13.1467 43.6349 12.2933 44.7283 11.68C45.8349 11.0667 47.0483 10.76 48.3683 10.76C49.6883 10.76 50.8949 11.0667 51.9883 11.68C53.0949 12.2933 53.9616 13.1467 54.5883 14.24C55.2283 15.3333 55.5483 16.5667 55.5483 17.94C55.5483 19.3133 55.2283 20.5533 54.5883 21.66C53.9483 22.7533 53.0816 23.6067 51.9883 24.22C50.8949 24.8333 49.6883 25.14 48.3683 25.14ZM48.3683 22.02C49.4883 22.02 50.3816 21.6467 51.0483 20.9C51.7283 20.1533 52.0683 19.1667 52.0683 17.94C52.0683 16.7 51.7283 15.7133 51.0483 14.98C50.3816 14.2333 49.4883 13.86 48.3683 13.86C47.2349 13.86 46.3283 14.2267 45.6483 14.96C44.9816 15.6933 44.6483 16.6867 44.6483 17.94C44.6483 19.18 44.9816 20.1733 45.6483 20.92C46.3283 21.6533 47.2349 22.02 48.3683 22.02Z" fill="#2D2D2D"/>
</svg>
