<svg width="557" height="85" viewBox="0 0 557 85" fill="none" xmlns="http://www.w3.org/2000/svg">
<path d="M61.6813 7.16V63H50.4813V26.68L35.5213 63H27.0413L12.0013 26.68V63H0.80125V7.16H13.5213L31.2813 48.68L49.0413 7.16H61.6813ZM78.4344 13.4C76.461 13.4 74.8077 12.7867 73.4744 11.56C72.1944 10.28 71.5544 8.70666 71.5544 6.84C71.5544 4.97333 72.1944 3.42666 73.4744 2.2C74.8077 0.919997 76.461 0.279997 78.4344 0.279997C80.4077 0.279997 82.0344 0.919997 83.3144 2.2C84.6477 3.42666 85.3144 4.97333 85.3144 6.84C85.3144 8.70666 84.6477 10.28 83.3144 11.56C82.0344 12.7867 80.4077 13.4 78.4344 13.4ZM83.9544 18.68V63H72.7544V18.68H83.9544ZM92.14 40.68C92.14 36.2 93.02 32.2267 94.78 28.76C96.5933 25.2933 99.0467 22.6267 102.14 20.76C105.233 18.8933 108.673 17.96 112.46 17.96C115.34 17.96 118.087 18.6 120.7 19.88C123.313 21.1067 125.393 22.76 126.94 24.84V3.8H138.3V63H126.94V56.44C125.553 58.6267 123.607 60.3867 121.1 61.72C118.593 63.0533 115.687 63.72 112.38 63.72C108.647 63.72 105.233 62.76 102.14 60.84C99.0467 58.92 96.5933 56.2267 94.78 52.76C93.02 49.24 92.14 45.2133 92.14 40.68ZM127.02 40.84C127.02 38.12 126.487 35.8 125.42 33.88C124.353 31.9067 122.913 30.4133 121.1 29.4C119.287 28.3333 117.34 27.8 115.26 27.8C113.18 27.8 111.26 28.3067 109.5 29.32C107.74 30.3333 106.3 31.8267 105.18 33.8C104.113 35.72 103.58 38.0133 103.58 40.68C103.58 43.3467 104.113 45.6933 105.18 47.72C106.3 49.6933 107.74 51.2133 109.5 52.28C111.313 53.3467 113.233 53.88 115.26 53.88C117.34 53.88 119.287 53.3733 121.1 52.36C122.913 51.2933 124.353 49.8 125.42 47.88C126.487 45.9067 127.02 43.56 127.02 40.84ZM179.501 25.08C180.941 23.0533 182.915 21.3733 185.421 20.04C187.981 18.6533 190.888 17.96 194.141 17.96C197.928 17.96 201.341 18.8933 204.381 20.76C207.475 22.6267 209.901 25.2933 211.661 28.76C213.475 32.1733 214.381 36.1467 214.381 40.68C214.381 45.2133 213.475 49.24 211.661 52.76C209.901 56.2267 207.475 58.92 204.381 60.84C201.341 62.76 197.928 63.72 194.141 63.72C190.888 63.72 188.008 63.0533 185.501 61.72C183.048 60.3867 181.048 58.7067 179.501 56.68V84.12H168.301V18.68H179.501V25.08ZM202.941 40.68C202.941 38.0133 202.381 35.72 201.261 33.8C200.195 31.8267 198.755 30.3333 196.941 29.32C195.181 28.3067 193.261 27.8 191.181 27.8C189.155 27.8 187.235 28.3333 185.421 29.4C183.661 30.4133 182.221 31.9067 181.101 33.88C180.035 35.8533 179.501 38.1733 179.501 40.84C179.501 43.5067 180.035 45.8267 181.101 47.8C182.221 49.7733 183.661 51.2933 185.421 52.36C187.235 53.3733 189.155 53.88 191.181 53.88C193.261 53.88 195.181 53.3467 196.941 52.28C198.755 51.2133 200.195 49.6933 201.261 47.72C202.381 45.7467 202.941 43.4 202.941 40.68ZM219.64 40.68C219.64 36.2 220.52 32.2267 222.28 28.76C224.093 25.2933 226.52 22.6267 229.56 20.76C232.653 18.8933 236.093 17.96 239.88 17.96C243.187 17.96 246.067 18.6267 248.52 19.96C251.027 21.2933 253.027 22.9733 254.52 25V18.68H265.8V63H254.52V56.52C253.08 58.6 251.08 60.3333 248.52 61.72C246.013 63.0533 243.107 63.72 239.8 63.72C236.067 63.72 232.653 62.76 229.56 60.84C226.52 58.92 224.093 56.2267 222.28 52.76C220.52 49.24 219.64 45.2133 219.64 40.68ZM254.52 40.84C254.52 38.12 253.987 35.8 252.92 33.88C251.853 31.9067 250.413 30.4133 248.6 29.4C246.787 28.3333 244.84 27.8 242.76 27.8C240.68 27.8 238.76 28.3067 237 29.32C235.24 30.3333 233.8 31.8267 232.68 33.8C231.613 35.72 231.08 38.0133 231.08 40.68C231.08 43.3467 231.613 45.6933 232.68 47.72C233.8 49.6933 235.24 51.2133 237 52.28C238.813 53.3467 240.733 53.88 242.76 53.88C244.84 53.88 246.787 53.3733 248.6 52.36C250.413 51.2933 251.853 49.8 252.92 47.88C253.987 45.9067 254.52 43.56 254.52 40.84ZM294.099 17.96C297.405 17.96 300.312 18.6267 302.819 19.96C305.325 21.24 307.299 22.92 308.739 25V18.68H320.019V63.32C320.019 67.4267 319.192 71.08 317.539 74.28C315.885 77.5333 313.405 80.0933 310.099 81.96C306.792 83.88 302.792 84.84 298.099 84.84C291.805 84.84 286.632 83.3733 282.579 80.44C278.579 77.5067 276.312 73.5067 275.779 68.44H286.899C287.485 70.4667 288.739 72.0667 290.659 73.24C292.632 74.4667 295.005 75.08 297.779 75.08C301.032 75.08 303.672 74.0933 305.699 72.12C307.725 70.2 308.739 67.2667 308.739 63.32V56.44C307.299 58.52 305.299 60.2533 302.739 61.64C300.232 63.0267 297.352 63.72 294.099 63.72C290.365 63.72 286.952 62.76 283.859 60.84C280.765 58.92 278.312 56.2267 276.499 52.76C274.739 49.24 273.859 45.2133 273.859 40.68C273.859 36.2 274.739 32.2267 276.499 28.76C278.312 25.2933 280.739 22.6267 283.779 20.76C286.872 18.8933 290.312 17.96 294.099 17.96ZM308.739 40.84C308.739 38.12 308.205 35.8 307.139 33.88C306.072 31.9067 304.632 30.4133 302.819 29.4C301.005 28.3333 299.059 27.8 296.979 27.8C294.899 27.8 292.979 28.3067 291.219 29.32C289.459 30.3333 288.019 31.8267 286.899 33.8C285.832 35.72 285.299 38.0133 285.299 40.68C285.299 43.3467 285.832 45.6933 286.899 47.72C288.019 49.6933 289.459 51.2133 291.219 52.28C293.032 53.3467 294.952 53.88 296.979 53.88C299.059 53.88 301.005 53.3733 302.819 52.36C304.632 51.2933 306.072 49.8 307.139 47.88C308.205 45.9067 308.739 43.56 308.739 40.84ZM372.158 39.88C372.158 41.48 372.051 42.92 371.838 44.2H339.438C339.704 47.4 340.824 49.9067 342.798 51.72C344.771 53.5333 347.198 54.44 350.078 54.44C354.238 54.44 357.198 52.6533 358.958 49.08H371.038C369.758 53.3467 367.304 56.8667 363.678 59.64C360.051 62.36 355.598 63.72 350.318 63.72C346.051 63.72 342.211 62.7867 338.798 60.92C335.438 59 332.798 56.3067 330.878 52.84C329.011 49.3733 328.077 45.3733 328.077 40.84C328.077 36.2533 329.011 32.2267 330.878 28.76C332.744 25.2933 335.358 22.6267 338.718 20.76C342.078 18.8933 345.944 17.96 350.318 17.96C354.531 17.96 358.291 18.8667 361.598 20.68C364.958 22.4933 367.544 25.08 369.358 28.44C371.224 31.7467 372.158 35.56 372.158 39.88ZM360.558 36.68C360.504 33.8 359.464 31.5067 357.438 29.8C355.411 28.04 352.931 27.16 349.998 27.16C347.224 27.16 344.878 28.0133 342.958 29.72C341.091 31.3733 339.944 33.6933 339.518 36.68H360.558ZM396.675 35C396.675 29.5067 397.902 24.6 400.355 20.28C402.862 15.9067 406.248 12.52 410.515 10.12C414.835 7.66667 419.662 6.44 424.995 6.44C431.235 6.44 436.702 8.04 441.395 11.24C446.088 14.44 449.368 18.8667 451.235 24.52H438.355C437.075 21.8533 435.262 19.8533 432.915 18.52C430.622 17.1867 427.955 16.52 424.915 16.52C421.662 16.52 418.755 17.2933 416.195 18.84C413.688 20.3333 411.715 22.4667 410.275 25.24C408.888 28.0133 408.195 31.2667 408.195 35C408.195 38.68 408.888 41.9333 410.275 44.76C411.715 47.5333 413.688 49.6933 416.195 51.24C418.755 52.7333 421.662 53.48 424.915 53.48C427.955 53.48 430.622 52.8133 432.915 51.48C435.262 50.0933 437.075 48.0667 438.355 45.4H451.235C449.368 51.1067 446.088 55.56 441.395 58.76C436.755 61.9067 431.288 63.48 424.995 63.48C419.662 63.48 414.835 62.28 410.515 59.88C406.248 57.4267 402.862 54.04 400.355 49.72C397.902 45.4 396.675 40.4933 396.675 35ZM498.801 7.16V16.2H483.921V63H472.721V16.2H457.841V7.16H498.801ZM541.213 52.36H518.973L515.293 63H503.533L523.613 7.08H536.653L556.733 63H544.893L541.213 52.36ZM538.173 43.4L530.093 20.04L522.013 43.4H538.173Z" fill="#2D2D2D"/>
</svg>
